<mxfile host="app.diagrams.net" modified="2023-12-01T05:15:09.665Z" agent="Mozilla/5.0 (Macintosh; Intel Mac OS X 10.15; rv:109.0) Gecko/20100101 Firefox/119.0" etag="ikz-OO4ePfrDlF5S76tG" version="21.3.7" type="device">
  <diagram name="Page-1" id="6CMjbhhEA8yiuNHhjtcT">
    <mxGraphModel dx="954" dy="614" grid="1" gridSize="10" guides="1" tooltips="1" connect="1" arrows="1" fold="1" page="1" pageScale="1" pageWidth="850" pageHeight="1100" math="0" shadow="0">
      <root>
        <mxCell id="0" />
        <mxCell id="1" parent="0" />
        <mxCell id="hrdePXVsT76qfCE-nsyh-17" value="" style="rounded=1;whiteSpace=wrap;html=1;fillColor=#f5f5f5;strokeColor=#666666;fontColor=#333333;" vertex="1" parent="1">
          <mxGeometry x="175" y="360" width="380" height="160" as="geometry" />
        </mxCell>
        <mxCell id="hrdePXVsT76qfCE-nsyh-18" value="1 cycle" style="edgeStyle=orthogonalEdgeStyle;rounded=0;orthogonalLoop=1;jettySize=auto;html=1;exitX=1;exitY=0.5;exitDx=0;exitDy=0;entryX=0;entryY=0.5;entryDx=0;entryDy=0;" edge="1" parent="1" source="hrdePXVsT76qfCE-nsyh-19" target="hrdePXVsT76qfCE-nsyh-22">
          <mxGeometry y="15" relative="1" as="geometry">
            <mxPoint as="offset" />
          </mxGeometry>
        </mxCell>
        <mxCell id="hrdePXVsT76qfCE-nsyh-19" value="&lt;b&gt;a &lt;/b&gt;hit" style="ellipse;whiteSpace=wrap;html=1;aspect=fixed;fillColor=#fff2cc;strokeColor=#d6b656;" vertex="1" parent="1">
          <mxGeometry x="215" y="380" width="50" height="50" as="geometry" />
        </mxCell>
        <mxCell id="hrdePXVsT76qfCE-nsyh-20" value="1 cycle" style="edgeStyle=orthogonalEdgeStyle;rounded=0;orthogonalLoop=1;jettySize=auto;html=1;exitX=1;exitY=0.5;exitDx=0;exitDy=0;entryX=0;entryY=0.5;entryDx=0;entryDy=0;" edge="1" parent="1" source="hrdePXVsT76qfCE-nsyh-22" target="hrdePXVsT76qfCE-nsyh-24">
          <mxGeometry x="0.0256" y="15" relative="1" as="geometry">
            <mxPoint as="offset" />
          </mxGeometry>
        </mxCell>
        <mxCell id="hrdePXVsT76qfCE-nsyh-21" style="edgeStyle=orthogonalEdgeStyle;rounded=0;orthogonalLoop=1;jettySize=auto;html=1;exitX=0.5;exitY=1;exitDx=0;exitDy=0;entryX=0;entryY=0.5;entryDx=0;entryDy=0;" edge="1" parent="1" source="hrdePXVsT76qfCE-nsyh-22" target="hrdePXVsT76qfCE-nsyh-30">
          <mxGeometry relative="1" as="geometry" />
        </mxCell>
        <mxCell id="hrdePXVsT76qfCE-nsyh-33" style="edgeStyle=orthogonalEdgeStyle;rounded=0;orthogonalLoop=1;jettySize=auto;html=1;exitX=1;exitY=1;exitDx=0;exitDy=0;entryX=0;entryY=0;entryDx=0;entryDy=0;" edge="1" parent="1" source="hrdePXVsT76qfCE-nsyh-22" target="hrdePXVsT76qfCE-nsyh-26">
          <mxGeometry relative="1" as="geometry">
            <Array as="points">
              <mxPoint x="425" y="423" />
              <mxPoint x="425" y="457" />
            </Array>
          </mxGeometry>
        </mxCell>
        <mxCell id="hrdePXVsT76qfCE-nsyh-22" value="&lt;b&gt;b&lt;/b&gt; hit" style="ellipse;whiteSpace=wrap;html=1;aspect=fixed;fillColor=#fff2cc;strokeColor=#d6b656;" vertex="1" parent="1">
          <mxGeometry x="315" y="380" width="50" height="50" as="geometry" />
        </mxCell>
        <mxCell id="hrdePXVsT76qfCE-nsyh-23" style="edgeStyle=orthogonalEdgeStyle;rounded=0;orthogonalLoop=1;jettySize=auto;html=1;exitX=1;exitY=0.5;exitDx=0;exitDy=0;entryX=1;entryY=0.5;entryDx=0;entryDy=0;" edge="1" parent="1" source="hrdePXVsT76qfCE-nsyh-24" target="hrdePXVsT76qfCE-nsyh-25">
          <mxGeometry relative="1" as="geometry" />
        </mxCell>
        <mxCell id="hrdePXVsT76qfCE-nsyh-24" value="&lt;b&gt;b&lt;/b&gt; hit" style="ellipse;whiteSpace=wrap;html=1;aspect=fixed;fillColor=#fff2cc;strokeColor=#d6b656;" vertex="1" parent="1">
          <mxGeometry x="454" y="380" width="50" height="50" as="geometry" />
        </mxCell>
        <mxCell id="hrdePXVsT76qfCE-nsyh-25" value="" style="ellipse;whiteSpace=wrap;html=1;aspect=fixed;" vertex="1" parent="1">
          <mxGeometry x="450" y="447" width="56" height="56" as="geometry" />
        </mxCell>
        <mxCell id="hrdePXVsT76qfCE-nsyh-26" value="&lt;b&gt;c &lt;/b&gt;hit" style="ellipse;whiteSpace=wrap;html=1;aspect=fixed;fillColor=#d5e8d4;strokeColor=#82b366;" vertex="1" parent="1">
          <mxGeometry x="453" y="450" width="50" height="50" as="geometry" />
        </mxCell>
        <mxCell id="hrdePXVsT76qfCE-nsyh-27" value="" style="endArrow=classic;html=1;rounded=0;entryX=0;entryY=0.5;entryDx=0;entryDy=0;" edge="1" parent="1" target="hrdePXVsT76qfCE-nsyh-19">
          <mxGeometry width="50" height="50" relative="1" as="geometry">
            <mxPoint x="185" y="405" as="sourcePoint" />
            <mxPoint x="215" y="405" as="targetPoint" />
          </mxGeometry>
        </mxCell>
        <mxCell id="hrdePXVsT76qfCE-nsyh-28" value="&lt;b&gt;DFA&lt;/b&gt;" style="text;html=1;strokeColor=none;fillColor=none;align=center;verticalAlign=middle;whiteSpace=wrap;rounded=0;" vertex="1" parent="1">
          <mxGeometry x="225" y="460" width="60" height="30" as="geometry" />
        </mxCell>
        <mxCell id="hrdePXVsT76qfCE-nsyh-14" value="" style="rounded=1;whiteSpace=wrap;html=1;fillColor=#f5f5f5;strokeColor=#666666;fontColor=#333333;" vertex="1" parent="1">
          <mxGeometry x="210" y="160" width="310" height="160" as="geometry" />
        </mxCell>
        <mxCell id="hrdePXVsT76qfCE-nsyh-1" value="&lt;div align=&quot;left&quot; class=&quot;language-verilog highlighter-rouge&quot;&gt;&lt;div class=&quot;highlight&quot;&gt;&lt;pre class=&quot;highlight&quot;&gt;&lt;code&gt;&lt;font face=&quot;Courier New&quot;&gt;&lt;b&gt;  sequence&lt;/b&gt; &lt;span class=&quot;n&quot;&gt;a_seq_b12_seq_c&lt;/span&gt;&lt;br&gt;      &lt;span class=&quot;n&quot;&gt;&lt;span style=&quot;white-space: pre;&quot;&gt;&#x9;&lt;/span&gt;a&lt;/span&gt; &lt;b&gt;&lt;span class=&quot;p&quot;&gt;##&lt;/span&gt;&lt;span class=&quot;mi&quot;&gt;1&lt;/span&gt;&lt;/b&gt; &lt;span class=&quot;n&quot;&gt;b&lt;/span&gt;&lt;b&gt;&lt;span class=&quot;p&quot;&gt;[&lt;/span&gt;&lt;span class=&quot;o&quot;&gt;*&lt;/span&gt;&lt;/b&gt;&lt;span class=&quot;mi&quot;&gt;1&lt;/span&gt;&lt;b&gt;&lt;span class=&quot;o&quot;&gt;:&lt;/span&gt;&lt;/b&gt;&lt;span class=&quot;mi&quot;&gt;2&lt;/span&gt;&lt;b&gt;&lt;span class=&quot;p&quot;&gt;]&lt;/span&gt;&lt;/b&gt; &lt;span class=&quot;p&quot;&gt;&lt;b&gt;##&lt;/b&gt;&lt;/span&gt; &lt;span class=&quot;n&quot;&gt;c&lt;/span&gt;&lt;br&gt;&lt;span class=&quot;k&quot;&gt;&lt;b&gt;  endsequence&lt;/b&gt;&lt;/span&gt;&lt;/font&gt;&lt;br&gt;&lt;/code&gt;&lt;/pre&gt;&lt;/div&gt;&lt;/div&gt;" style="rounded=1;whiteSpace=wrap;html=1;align=left;arcSize=0;fillColor=#f5f5f5;fontColor=#333333;strokeColor=#666666;" vertex="1" parent="1">
          <mxGeometry x="260" y="60" width="210" height="60" as="geometry" />
        </mxCell>
        <mxCell id="hrdePXVsT76qfCE-nsyh-2" value="" style="shape=flexArrow;endArrow=classic;html=1;rounded=0;exitX=0.5;exitY=1;exitDx=0;exitDy=0;fillColor=#dae8fc;strokeColor=#6c8ebf;width=14;endSize=6.67;" edge="1" parent="1" source="hrdePXVsT76qfCE-nsyh-1">
          <mxGeometry width="50" height="50" relative="1" as="geometry">
            <mxPoint x="400" y="340" as="sourcePoint" />
            <mxPoint x="365" y="170" as="targetPoint" />
          </mxGeometry>
        </mxCell>
        <mxCell id="hrdePXVsT76qfCE-nsyh-9" value="1 cycle" style="edgeStyle=orthogonalEdgeStyle;rounded=0;orthogonalLoop=1;jettySize=auto;html=1;exitX=1;exitY=0.5;exitDx=0;exitDy=0;entryX=0;entryY=0.5;entryDx=0;entryDy=0;" edge="1" parent="1" source="hrdePXVsT76qfCE-nsyh-3" target="hrdePXVsT76qfCE-nsyh-4">
          <mxGeometry y="15" relative="1" as="geometry">
            <mxPoint as="offset" />
          </mxGeometry>
        </mxCell>
        <mxCell id="hrdePXVsT76qfCE-nsyh-3" value="&lt;b&gt;a &lt;/b&gt;hit" style="ellipse;whiteSpace=wrap;html=1;aspect=fixed;fillColor=#fff2cc;strokeColor=#d6b656;" vertex="1" parent="1">
          <mxGeometry x="250" y="180" width="50" height="50" as="geometry" />
        </mxCell>
        <mxCell id="hrdePXVsT76qfCE-nsyh-10" value="1 cycle" style="edgeStyle=orthogonalEdgeStyle;rounded=0;orthogonalLoop=1;jettySize=auto;html=1;exitX=1;exitY=0.5;exitDx=0;exitDy=0;entryX=0;entryY=0.5;entryDx=0;entryDy=0;" edge="1" parent="1" source="hrdePXVsT76qfCE-nsyh-4" target="hrdePXVsT76qfCE-nsyh-5">
          <mxGeometry x="0.0256" y="15" relative="1" as="geometry">
            <mxPoint as="offset" />
          </mxGeometry>
        </mxCell>
        <mxCell id="hrdePXVsT76qfCE-nsyh-12" style="edgeStyle=orthogonalEdgeStyle;rounded=0;orthogonalLoop=1;jettySize=auto;html=1;exitX=0.5;exitY=1;exitDx=0;exitDy=0;entryX=0;entryY=0.5;entryDx=0;entryDy=0;" edge="1" parent="1" source="hrdePXVsT76qfCE-nsyh-4" target="hrdePXVsT76qfCE-nsyh-6">
          <mxGeometry relative="1" as="geometry" />
        </mxCell>
        <mxCell id="hrdePXVsT76qfCE-nsyh-4" value="&lt;b&gt;b&lt;/b&gt; hit" style="ellipse;whiteSpace=wrap;html=1;aspect=fixed;fillColor=#fff2cc;strokeColor=#d6b656;" vertex="1" parent="1">
          <mxGeometry x="340" y="180" width="50" height="50" as="geometry" />
        </mxCell>
        <mxCell id="hrdePXVsT76qfCE-nsyh-13" style="edgeStyle=orthogonalEdgeStyle;rounded=0;orthogonalLoop=1;jettySize=auto;html=1;exitX=1;exitY=0.5;exitDx=0;exitDy=0;entryX=1;entryY=0.5;entryDx=0;entryDy=0;" edge="1" parent="1" source="hrdePXVsT76qfCE-nsyh-5" target="hrdePXVsT76qfCE-nsyh-6">
          <mxGeometry relative="1" as="geometry" />
        </mxCell>
        <mxCell id="hrdePXVsT76qfCE-nsyh-5" value="&lt;b&gt;b&lt;/b&gt; hit" style="ellipse;whiteSpace=wrap;html=1;aspect=fixed;fillColor=#fff2cc;strokeColor=#d6b656;" vertex="1" parent="1">
          <mxGeometry x="429" y="180" width="50" height="50" as="geometry" />
        </mxCell>
        <mxCell id="hrdePXVsT76qfCE-nsyh-7" value="" style="ellipse;whiteSpace=wrap;html=1;aspect=fixed;" vertex="1" parent="1">
          <mxGeometry x="405" y="247" width="56" height="56" as="geometry" />
        </mxCell>
        <mxCell id="hrdePXVsT76qfCE-nsyh-6" value="&lt;b&gt;c &lt;/b&gt;hit" style="ellipse;whiteSpace=wrap;html=1;aspect=fixed;fillColor=#d5e8d4;strokeColor=#82b366;" vertex="1" parent="1">
          <mxGeometry x="408" y="250" width="50" height="50" as="geometry" />
        </mxCell>
        <mxCell id="hrdePXVsT76qfCE-nsyh-8" value="" style="endArrow=classic;html=1;rounded=0;entryX=0;entryY=0.5;entryDx=0;entryDy=0;" edge="1" parent="1" target="hrdePXVsT76qfCE-nsyh-3">
          <mxGeometry width="50" height="50" relative="1" as="geometry">
            <mxPoint x="221" y="205" as="sourcePoint" />
            <mxPoint x="250" y="200" as="targetPoint" />
          </mxGeometry>
        </mxCell>
        <mxCell id="hrdePXVsT76qfCE-nsyh-15" value="&lt;b&gt;NFA&lt;/b&gt;" style="text;html=1;strokeColor=none;fillColor=none;align=center;verticalAlign=middle;whiteSpace=wrap;rounded=0;" vertex="1" parent="1">
          <mxGeometry x="240" y="260" width="60" height="30" as="geometry" />
        </mxCell>
        <mxCell id="hrdePXVsT76qfCE-nsyh-16" value="" style="shape=flexArrow;endArrow=classic;html=1;rounded=0;exitX=0.5;exitY=1;exitDx=0;exitDy=0;fillColor=#dae8fc;strokeColor=#6c8ebf;width=14;endSize=6.67;" edge="1" parent="1">
          <mxGeometry width="50" height="50" relative="1" as="geometry">
            <mxPoint x="364.5" y="320" as="sourcePoint" />
            <mxPoint x="364.5" y="370" as="targetPoint" />
          </mxGeometry>
        </mxCell>
        <mxCell id="hrdePXVsT76qfCE-nsyh-29" value="" style="ellipse;whiteSpace=wrap;html=1;aspect=fixed;" vertex="1" parent="1">
          <mxGeometry x="360" y="447" width="56" height="56" as="geometry" />
        </mxCell>
        <mxCell id="hrdePXVsT76qfCE-nsyh-31" style="edgeStyle=orthogonalEdgeStyle;rounded=0;orthogonalLoop=1;jettySize=auto;html=1;exitX=1;exitY=0.5;exitDx=0;exitDy=0;entryX=0;entryY=0.5;entryDx=0;entryDy=0;" edge="1" parent="1" source="hrdePXVsT76qfCE-nsyh-30" target="hrdePXVsT76qfCE-nsyh-26">
          <mxGeometry relative="1" as="geometry" />
        </mxCell>
        <mxCell id="hrdePXVsT76qfCE-nsyh-30" value="&lt;div&gt;&lt;b&gt;c &lt;/b&gt;hit &lt;b&gt;&lt;br&gt;&lt;/b&gt;&lt;/div&gt;&lt;div&gt;&lt;b&gt;&amp;amp;&amp;nbsp;&lt;/b&gt;&lt;/div&gt;&lt;div&gt;&lt;b&gt;b&lt;/b&gt; hit&lt;/div&gt;" style="ellipse;whiteSpace=wrap;html=1;aspect=fixed;fillColor=#d5e8d4;strokeColor=#82b366;" vertex="1" parent="1">
          <mxGeometry x="363" y="450" width="50" height="50" as="geometry" />
        </mxCell>
      </root>
    </mxGraphModel>
  </diagram>
</mxfile>
